<svg width="25" height="25" viewBox="0 0 25 25" fill="none" xmlns="http://www.w3.org/2000/svg">
<g id="circum:play-1">
<path id="Vector" d="M6.72708 22.492C6.39051 22.492 6.05725 22.4257 5.7463 22.2969C5.43536 22.1681 5.15283 21.9793 4.91484 21.7413C4.67685 21.5033 4.48807 21.2208 4.35927 20.9098C4.23048 20.5989 4.16418 20.2656 4.16418 19.9291V4.67472C4.16425 4.20779 4.29187 3.74975 4.53326 3.35007C4.77466 2.95038 5.12066 2.62423 5.5339 2.40685C5.94714 2.18947 6.41191 2.08911 6.87803 2.11661C7.34414 2.14411 7.79389 2.29843 8.1787 2.5629L19.3293 10.189C19.6719 10.4246 19.952 10.7399 20.1455 11.1078C20.339 11.4757 20.4401 11.8852 20.4401 12.3009C20.4401 12.7166 20.339 13.126 20.1455 13.4939C19.952 13.8618 19.6719 14.1772 19.3293 14.4127L8.17768 22.0409C7.75084 22.3344 7.24508 22.4916 6.72708 22.492ZM6.72708 3.13288C6.47664 3.13379 6.23024 3.19609 6.00947 3.31434C5.76018 3.44288 5.5515 3.63814 5.40669 3.87835C5.26188 4.11855 5.18663 4.39425 5.18934 4.67472V19.928C5.18951 20.2082 5.26621 20.4829 5.41114 20.7227C5.55607 20.9624 5.76374 21.158 6.01172 21.2883C6.2597 21.4186 6.53856 21.4787 6.8182 21.4621C7.09785 21.4455 7.36764 21.3528 7.59846 21.1941L18.7491 13.5669C18.9544 13.4256 19.1223 13.2364 19.2383 13.0158C19.3542 12.7951 19.4148 12.5496 19.4148 12.3004C19.4148 12.0511 19.3542 11.8056 19.2383 11.5849C19.1223 11.3643 18.9544 11.1751 18.7491 11.0338L7.59949 3.40968C7.34436 3.23087 7.04068 3.13429 6.72913 3.13288H6.72708Z" fill="white"/>
</g>
</svg>
